<svg xmlns="http://www.w3.org/2000/svg" viewBox="0 0 55 55">
	<style type="text/css">
		.st0{fill:#E5CAAF;stroke:#000000;stroke-width:0.5;stroke-miterlimit:10;}
		.st1{fill:#572E10;stroke:#000000;stroke-width:0.5;stroke-miterlimit:10;}
		.st2{fill:#061AF0;stroke:#000000;stroke-width:0.5;stroke-miterlimit:10;}
		.st3{fill:#AF1400;stroke:#000000;stroke-width:0.5;stroke-miterlimit:10;}
		.st4{fill:#EFD14C;stroke:#000000;stroke-width:0.5;stroke-miterlimit:10;}
		.st5{fill:#FFFFFF;stroke:#000000;stroke-width:0.5;stroke-miterlimit:10;}
		.st6{fill:#930E00;stroke:#000000;stroke-width:0.5;stroke-miterlimit:10;}
		.st7{fill:#FCB048;stroke:#000000;stroke-width:0.5;stroke-miterlimit:10;}
		.st8{fill:#470C01;stroke:#000000;stroke-miterlimit:10;}
		.st9{fill:#A11800;}
		.st10{fill:#1E0D05;}
		.st11{fill:#401C05;stroke:#000000;stroke-width:0.5;stroke-miterlimit:10;}
		.st12{fill:#F42200;stroke:#000000;stroke-width:0.5;stroke-miterlimit:10;}
		.st13{fill:#F41B00;}
	</style>
	<g id="Shoe_1_">
		<path class="st0" d="M44.2,32.3c0.7-0.1,2.1,0.7,1.9,2.3s-0.9,3.4-1.3,4.7c-0.6,2-0.5,3.6-1.5,4c-1,0.4-1.4,0.1-1.8-0.6
			c-0.5-0.7,2.2-4.9,2.3-5.9C43.8,35.9,43.4,32.4,44.2,32.3z"/>
		<path class="st1" d="M37.4,33.1c0.1-1,1.5-2.9,4-2.8c2.6,0.1,3.3,1.7,3.3,2.9c0,0.9-0.3,3.8-0.5,4.9c-0.5,2.7-2,4.7-2.3,4.9
			S39.5,44,36.9,42C34.4,39.9,37.3,33.6,37.4,33.1z"/>
		<path d="M37,40.3c0.2,0.2,1.5-0.2,1.4-3.2c0.9,2.9-1.5,4.5-2,4.6C35.9,41.8,37,40.3,37,40.3z"/>
	</g>
	<g id="Body">
		<path class="st2" d="M32.3,28.6c0.7,0.7,4.9,4.2,5.3,7.6c0.3,3.4-0.5,7.8-5.8,9.8c-5.3,2-13.1-0.3-14.5-1s-4-5.2-2.4-8.2
			s5.9-8,8-9.1S31,27.3,32.3,28.6z"/>
		<path class="st3" d="M28.6,30.2c0.6,0.7,1.6,2.3,1.6,2.3s3-0.4,3.9-0.4c-0.6-1.2-2.7-3-3.5-3.3C29.8,28.5,28.6,30.2,28.6,30.2z"/>
		<path class="st4" d="M29.9,33c-1.3,0-2.7,1.1-2.6,2.9c0.2,1.7,1.5,2.6,2.9,2.4c1.4-0.2,2.3-1.4,2.2-3C32.3,33.8,31.3,32.9,29.9,33z
			"/>
		<path class="st3" d="M20,33.8c-0.3,0.8-1.5,2.6,1.4,2.9c2.9,0.3,4.9-2.4,4.7-4.5c-0.3-2.2-0.9-2.9-2.1-3.1
			C21.9,28.9,20.5,32.4,20,33.8z"/>
		<path class="st4" d="M35.5,31.7c-0.7,0.3-1,1.7-0.5,3c0.6,1.6,1.6,2.2,2.4,1.8c0.8-0.4,0.8-1.9,0.6-2.9
			C37.6,32.3,36.2,31.4,35.5,31.7z"/>
	</g>
	<g id="Shoe">
		<path class="st0" d="M15.5,51.8c-1.1,0.2-2.9-1.1-2.2-4.2s1.9-5.6,2.7-5.7s1.6-0.1,1.6,0.3c-0.6,0.7-2.3,3.7-2.2,5.9
			C15.5,50.4,15.5,51.8,15.5,51.8z"/>
		<path class="st1" d="M19.8,41c1.5-0.1,1.8,0.8,1.9,1.2c0.5-0.5,1.7-0.4,1.9,2.6c0.2,3-0.2,4.3-1.2,4.3c0.1,1.8-1.5,4.7-4.2,4.6
			c-2.7-0.1-3.5-2.7-3.5-4.2c0-1.5,0.3-4.8,1.2-6C16.7,42.5,18.7,41.1,19.8,41z"/>
		<path d="M20.8,46.4c0.2-2.1,0.4-3.8,1-4.1c-0.2-0.4-0.2-0.4-0.3-0.2C21.4,42.2,20.7,42.7,20.8,46.4z"/>
	</g>
	<g id="Arm">
		<path class="st5" d="M33.9,5.8c-0.3-1.8,2-3.5,3.4-3.4c1.4,0.1,2.2,1.2,2.4,1.6c2.3-0.2,4.7,2.5,4.6,5.4s-1.6,4.1-2.8,4.6
			c1.4,0.2,1.2,2.3-0.5,3c-1.7,0.8-2.1,0.1-2.2-0.6c-0.1-0.7-4-3.8-4.9-3.9c-0.9-0.1-2.2-1-1.9-1.9C32.3,9.7,33.9,5.8,33.9,5.8z"/>
		<path d="M36.6,12c0.1-0.8,0.5-2.1-1.4-1.9c2.5-0.7,4.4-2.5,2.1-3.4c-0.5-0.2-0.9-0.4-0.5-0.4s2.2,0.3,2,1.4s-1.3,2-1.7,2.2
			c0.6,0.8,2.1,1.4,2.9,1.3c-1.4,0.1-2.4-0.2-3.1-0.9C37.1,11.3,37.1,11.5,36.6,12z"/>
		<path class="st6" d="M32.5,28.9c0,0,1,0.9,1.5,1.4c4.6-5.4,6.6-10.9,6.8-13.3c-0.5-0.4-1.8-0.2-2.2,0
			C38.1,17.3,32.9,27.5,32.5,28.9z"/>
	</g>
	<g id="Arm_1_">
		<path class="st3" d="M19.4,35.1c-0.8-1.2-4-2.7-5.6-2.4c3.1-1.5,6.8-4.3,9.1-4.2c2.3,0.2,2.1,1.9,1.1,2.8c-0.9,0.9-2.7,1.8-3.2,2.2
			C20.5,33.9,19.6,34.7,19.4,35.1z"/>
		<path class="st5" d="M13.8,32.5c-1.3-0.2-3,0.9-2.9,1.9C9.5,35.6,7.4,39,10.5,42c3,3.1,7.8,1.1,8.1-0.3c0.9-0.2,2.4-1.5,1.1-4.4
			C20,36.6,20.5,33.4,13.8,32.5z"/>
		<path d="M12.4,36.2c-0.9,0.6-2,1.7-1.4,2.2c0.7,0.5,1.7-1.6,1.7-1.9S12.4,36.2,12.4,36.2z"/>
		<path d="M14.5,37.3c-0.3,0.1-1.2,1.9-0.9,2.3c0.3,0.4,1.1,0.2,1.2-0.8C14.8,37.9,15,37.1,14.5,37.3z"/>
		<path d="M18.2,35.7c0.8,1,1.4,1.6,1.8,2.9c-0.3-1-0.4-1.4-0.4-1.4C19.4,36.9,18.7,36,18.2,35.7z"/>
		<path d="M10.4,35c-0.4,0.5-0.5,0.6,0.3,0c0.5-0.5,1.6-0.8,2.1-1C11.2,34.1,11.1,34.3,10.4,35z"/>
		<path d="M19.4,41.3c-1,0.5-3,0.2-1.9-1.3c-0.7,0.6-1,1.1-0.9,1.7c0.2-0.6,0.4-0.5,0.6-0.4c0.2,0.1,0.3,0.4,0.6,0.4
			c0.3,0,0.9,0.2,0.5,0.6C18.8,41.5,19.4,41.3,19.4,41.3z"/>
	</g>
	<g id="Head">
		<path class="st7" d="M17.9,21.5c-3.2-0.6-5.9,2.1-4.3,5.7c1.2,2.6,4.8,3.1,6.3,2.6c0.8-0.2,1.6-0.7,2-1.1c2,1.4,12,4.3,13.9-5.3
			c-2.3-2.4-2.8-3-3.4-3.6c2.5,1,7.3-0.5,6.8-4.4c-0.4-3.9-5.1-4.5-7.9-1.3c1-1,1.3-1.1,2.1-1.6C32.9,10.9,30.4,8,29,7
			c-4.5,1.9-7.1,4.7-8.3,6.5S18.2,18.9,17.9,21.5z"/>
		<path d="M16.2,24.1c1.9-0.3,3.2,0.4,3.6,1.4s-0.1,1.9-0.5,2.2c0.6-1.7,0-2.9-1.3-2.4C18.9,24.7,17.9,24,16.2,24.1z"/>
		<path class="st8" d="M34,23.6c0.7,0.7-0.2,4.5-2.3,4.5s-2.6-2.9-2.3-3.8C29.7,23.4,33.6,23.2,34,23.6z"/>
		<path class="st9" d="M31.6,24.8c0.7,0.5,1.8,1.5,1.4,2.3c-0.5,0.7-1.6,1-2.3,0.6c-0.9-0.7-1.6-2.9-0.9-3.2
			C30.4,24.2,31.1,24.4,31.6,24.8z"/>
		<path class="st10" d="M26.1,20c-0.4,1-0.9,4.1,2.6,3.9c0.9,1.7,2.7,2.1,4,0.7c1.5,0.5,2.7-0.3,3.1-1.2c0.9,0.3,1.9-0.6,1.6-1.6
			c0.9-0.3,1.1-1.8,0.2-2.7c-2.1,1.6-4.9,0.8-5.4,0.7C30.8,20.6,27,20.4,26.1,20z"/>
		<path class="st11" d="M17.9,21.5c-0.5-0.7,0.4-3.3,0.9-4.2c1.2,1.4,1.5,1.9,2.4,2.4c0.9,0.5,2.9,0.3,2.4,1.5
			c-0.5,1.2-0.5,1.4-0.2,2.2c0.3,0.8-0.5,0.8-1,0.7C21.5,23.9,18.9,22.8,17.9,21.5z"/>
		<path class="st12" d="M17.9,21.5c0.2-4.6,2.8-8.7,4.7-10.5c1.8-1.8,4.5-3.4,7.3-4.4c0-4.1-4.9-6.7-8.6-4.6s-8,8.3-7.5,15.5
			c-2.1,0.3-4.2,4.5-0.6,7.5C13.7,21.1,16.4,21.3,17.9,21.5z"/>
		<path class="st12" d="M19,16.9c1.4,0.9,3.4,0.8,4.5-0.8c1.1-1.6,6.4-8.6,12.1-10.1c-4.3-1-10.9,2.2-13.7,5.8
			C19.7,14.6,19.3,16,19,16.9z"/>
		<path d="M32.5,10.7c2.1-0.5,4.7-2.6,4.7-4c0-0.9-1.3-0.9-2.3-0.5c-0.2,0.1-2.6,0.9-4.2,2.4C31.4,9.3,32.3,10.4,32.5,10.7z"/>
		<ellipse transform="matrix(0.866 -0.5 0.5 0.866 -4.5018 15.8288)" cx="27.3" cy="16.3" rx="0.9" ry="2.5"/>
		<path d="M32.5,12.9c0-0.1-0.1-0.2-0.2-0.4c-0.7-1.2-1.6-2-2-1.7c-0.4,0.2-0.2,1.4,0.5,2.6c0.2,0.3,0.5,0.7,0.7,0.9
			C31.8,13.8,32.3,13,32.5,12.9z"/>
		<path class="st5" d="M23.2,10.4c1.1-1,3.6-2.8,5.2-3.3c0.2-1.5-0.8-2.9-2-3.3s-3.4-0.4-4.5,1.5c-1.1,2-0.4,3.8,0.4,4.5
			C22.7,10.2,23.2,10.4,23.2,10.4z"/>
		<polygon class="st13" points="23.6,9 24.4,8.9 24.1,7.2 25.2,7.7 25.4,6.3 26.7,7.5 27.3,6.6 24.6,4.5 24.6,6.4 22.9,5.8 	"/>
	</g>
</svg>
